<svg xmlns="http://www.w3.org/2000/svg" xmlns:xlink="http://www.w3.org/1999/xlink" width="500" zoomAndPan="magnify" viewBox="0 0 375 374.999991" height="500" preserveAspectRatio="xMidYMid meet" version="1.2"><defs><clipPath id="d53a2a7d85"><path d="M 187.5 0 C 83.945312 0 0 83.945312 0 187.5 C 0 291.054688 83.945312 375 187.5 375 C 291.054688 375 375 291.054688 375 187.5 C 375 83.945312 291.054688 0 187.5 0 Z M 187.5 0 "/></clipPath><clipPath id="d3117ab596"><path d="M 34.699219 36.625 L 336.058594 36.625 L 336.058594 337.984375 L 34.699219 337.984375 Z M 34.699219 36.625 "/></clipPath></defs><g id="e32475146b"><g clip-rule="nonzero" clip-path="url(#d53a2a7d85)"><rect x="0" width="375" y="0" height="374.999991" style="fill:#38b6ff;fill-opacity:1;stroke:none;"/></g><g clip-rule="nonzero" clip-path="url(#d3117ab596)"><path style=" stroke:none;fill-rule:nonzero;fill:#ffffff;fill-opacity:1;" d="M 185.378906 36.625 C 182.914062 36.625 180.449219 36.6875 177.984375 36.808594 C 175.523438 36.929688 173.066406 37.109375 170.609375 37.351562 C 168.15625 37.59375 165.710938 37.894531 163.269531 38.257812 C 160.832031 38.617188 158.402344 39.039062 155.984375 39.519531 C 153.566406 40.003906 151.160156 40.542969 148.769531 41.140625 C 146.375 41.742188 144 42.398438 141.640625 43.113281 C 139.28125 43.828125 136.9375 44.601562 134.617188 45.433594 C 132.296875 46.265625 129.996094 47.152344 127.71875 48.09375 C 125.4375 49.039062 123.183594 50.039062 120.957031 51.09375 C 118.726562 52.148438 116.523438 53.253906 114.351562 54.417969 C 112.175781 55.582031 110.03125 56.796875 107.914062 58.0625 C 105.800781 59.332031 103.71875 60.648438 101.667969 62.019531 C 99.617188 63.390625 97.601562 64.808594 95.621094 66.277344 C 93.640625 67.746094 91.695312 69.265625 89.789062 70.828125 C 87.882812 72.394531 86.015625 74.003906 84.191406 75.660156 C 82.363281 77.316406 80.578125 79.015625 78.832031 80.757812 C 77.089844 82.503906 75.390625 84.289062 73.734375 86.113281 C 72.078125 87.941406 70.46875 89.808594 68.902344 91.714844 C 67.339844 93.621094 65.824219 95.566406 64.351562 97.546875 C 62.882812 99.527344 61.464844 101.542969 60.09375 103.59375 C 58.726562 105.640625 57.40625 107.726562 56.136719 109.839844 C 54.871094 111.957031 53.65625 114.101562 52.492188 116.273438 C 51.332031 118.449219 50.222656 120.652344 49.167969 122.882812 C 48.113281 125.109375 47.113281 127.363281 46.171875 129.640625 C 45.226562 131.921875 44.339844 134.21875 43.507812 136.542969 C 42.679688 138.863281 41.90625 141.203125 41.1875 143.566406 C 40.472656 145.925781 39.816406 148.300781 39.214844 150.691406 C 38.617188 153.085938 38.078125 155.488281 37.597656 157.910156 C 37.113281 160.328125 36.695312 162.757812 36.332031 165.195312 C 35.96875 167.632812 35.667969 170.082031 35.425781 172.535156 C 35.183594 174.988281 35.003906 177.449219 34.882812 179.910156 C 34.761719 182.375 34.699219 184.839844 34.699219 187.304688 C 34.699219 189.769531 34.761719 192.234375 34.882812 194.699219 C 35.003906 197.160156 35.183594 199.621094 35.425781 202.074219 C 35.667969 204.527344 35.96875 206.972656 36.332031 209.414062 C 36.695312 211.851562 37.113281 214.28125 37.597656 216.699219 C 38.078125 219.121094 38.617188 221.523438 39.214844 223.917969 C 39.816406 226.308594 40.472656 228.683594 41.1875 231.042969 C 41.90625 233.402344 42.679688 235.746094 43.507812 238.066406 C 44.339844 240.386719 45.226562 242.6875 46.171875 244.96875 C 47.113281 247.246094 48.113281 249.5 49.167969 251.726562 C 50.222656 253.957031 51.332031 256.160156 52.492188 258.335938 C 53.65625 260.507812 54.871094 262.652344 56.136719 264.769531 C 57.40625 266.882812 58.726562 268.96875 60.09375 271.015625 C 61.464844 273.066406 62.882812 275.082031 64.351562 277.0625 C 65.824219 279.042969 67.339844 280.988281 68.902344 282.894531 C 70.46875 284.800781 72.078125 286.667969 73.734375 288.496094 C 75.390625 290.320312 77.089844 292.105469 78.832031 293.851562 C 80.578125 295.59375 82.363281 297.292969 84.191406 298.949219 C 86.015625 300.605469 87.882812 302.214844 89.789062 303.78125 C 91.695312 305.34375 93.640625 306.863281 95.621094 308.332031 C 97.601562 309.800781 99.617188 311.21875 101.667969 312.589844 C 103.71875 313.960938 105.800781 315.277344 107.914062 316.546875 C 110.03125 317.8125 112.175781 319.027344 114.351562 320.191406 C 116.523438 321.355469 118.726562 322.460938 120.957031 323.515625 C 123.183594 324.570312 125.4375 325.570312 127.71875 326.511719 C 129.996094 327.457031 132.296875 328.34375 134.617188 329.175781 C 136.9375 330.007812 139.28125 330.777344 141.640625 331.496094 C 144 332.210938 146.375 332.867188 148.769531 333.46875 C 151.160156 334.066406 153.566406 334.605469 155.984375 335.089844 C 158.402344 335.570312 160.832031 335.992188 163.269531 336.351562 C 165.710938 336.714844 168.15625 337.015625 170.609375 337.257812 C 173.066406 337.5 175.523438 337.679688 177.984375 337.800781 C 180.449219 337.921875 182.914062 337.984375 185.378906 337.984375 C 187.84375 337.984375 190.308594 337.921875 192.773438 337.800781 C 195.234375 337.679688 197.695312 337.5 200.148438 337.257812 C 202.601562 337.015625 205.050781 336.714844 207.488281 336.351562 C 209.929688 335.992188 212.355469 335.570312 214.777344 335.089844 C 217.195312 334.605469 219.597656 334.066406 221.992188 333.46875 C 224.382812 332.867188 226.757812 332.210938 229.121094 331.496094 C 231.480469 330.777344 233.820312 330.007812 236.140625 329.175781 C 238.464844 328.34375 240.761719 327.457031 243.042969 326.511719 C 245.320312 325.570312 247.574219 324.570312 249.804688 323.515625 C 252.03125 322.460938 254.234375 321.355469 256.410156 320.191406 C 258.582031 319.027344 260.730469 317.8125 262.84375 316.546875 C 264.960938 315.277344 267.042969 313.960938 269.09375 312.589844 C 271.144531 311.21875 273.15625 309.800781 275.140625 308.332031 C 277.121094 306.863281 279.0625 305.34375 280.96875 303.78125 C 282.875 302.214844 284.742188 300.605469 286.570312 298.949219 C 288.398438 297.292969 290.183594 295.59375 291.925781 293.851562 C 293.667969 292.105469 295.371094 290.320312 297.023438 288.496094 C 298.679688 286.667969 300.292969 284.800781 301.855469 282.894531 C 303.421875 280.988281 304.9375 279.042969 306.40625 277.0625 C 307.875 275.082031 309.292969 273.066406 310.664062 271.015625 C 312.035156 268.96875 313.351562 266.882812 314.621094 264.769531 C 315.890625 262.652344 317.105469 260.507812 318.265625 258.335938 C 319.429688 256.160156 320.539062 253.957031 321.589844 251.726562 C 322.644531 249.5 323.644531 247.246094 324.589844 244.96875 C 325.53125 242.6875 326.417969 240.386719 327.25 238.066406 C 328.082031 235.746094 328.855469 233.402344 329.570312 231.042969 C 330.285156 228.683594 330.945312 226.308594 331.542969 223.917969 C 332.140625 221.523438 332.683594 219.121094 333.164062 216.699219 C 333.644531 214.28125 334.066406 211.851562 334.425781 209.414062 C 334.789062 206.972656 335.089844 204.527344 335.332031 202.074219 C 335.574219 199.621094 335.757812 197.160156 335.875 194.699219 C 335.996094 192.234375 336.058594 189.769531 336.058594 187.304688 C 336.058594 184.839844 335.996094 182.375 335.875 179.910156 C 335.757812 177.449219 335.574219 174.988281 335.332031 172.535156 C 335.089844 170.082031 334.789062 167.632812 334.425781 165.195312 C 334.066406 162.757812 333.644531 160.328125 333.164062 157.910156 C 332.683594 155.488281 332.140625 153.085938 331.542969 150.691406 C 330.945312 148.300781 330.285156 145.925781 329.570312 143.566406 C 328.855469 141.203125 328.082031 138.863281 327.25 136.542969 C 326.417969 134.21875 325.53125 131.921875 324.589844 129.640625 C 323.644531 127.363281 322.644531 125.109375 321.589844 122.882812 C 320.539062 120.652344 319.429688 118.449219 318.265625 116.273438 C 317.105469 114.101562 315.890625 111.957031 314.621094 109.839844 C 313.351562 107.726562 312.035156 105.640625 310.664062 103.59375 C 309.292969 101.542969 307.875 99.527344 306.40625 97.546875 C 304.9375 95.566406 303.421875 93.621094 301.855469 91.714844 C 300.292969 89.808594 298.679688 87.941406 297.023438 86.113281 C 295.371094 84.289062 293.667969 82.503906 291.925781 80.757812 C 290.183594 79.015625 288.398438 77.316406 286.570312 75.660156 C 284.742188 74.003906 282.875 72.394531 280.96875 70.828125 C 279.0625 69.265625 277.121094 67.746094 275.140625 66.277344 C 273.15625 64.808594 271.144531 63.390625 269.09375 62.019531 C 267.042969 60.648438 264.960938 59.332031 262.84375 58.0625 C 260.730469 56.796875 258.582031 55.582031 256.410156 54.417969 C 254.234375 53.253906 252.03125 52.148438 249.804688 51.09375 C 247.574219 50.039062 245.320312 49.039062 243.042969 48.09375 C 240.761719 47.152344 238.464844 46.265625 236.140625 45.433594 C 233.820312 44.601562 231.480469 43.828125 229.121094 43.113281 C 226.757812 42.398438 224.382812 41.742188 221.992188 41.140625 C 219.597656 40.542969 217.195312 40.003906 214.777344 39.519531 C 212.355469 39.039062 209.929688 38.617188 207.488281 38.257812 C 205.050781 37.894531 202.601562 37.59375 200.148438 37.351562 C 197.695312 37.109375 195.234375 36.929688 192.773438 36.808594 C 190.308594 36.6875 187.84375 36.625 185.378906 36.625 Z M 206.90625 239.878906 C 206.238281 239.976562 205.570312 240 204.902344 239.953125 C 204.230469 239.90625 203.570312 239.789062 202.925781 239.601562 C 202.28125 239.414062 201.660156 239.160156 201.070312 238.839844 C 200.480469 238.519531 199.929688 238.136719 199.417969 237.699219 C 198.910156 237.261719 198.453125 236.773438 198.046875 236.238281 C 197.640625 235.699219 197.296875 235.128906 197.015625 234.515625 C 196.730469 233.90625 196.515625 233.273438 196.371094 232.617188 C 196.222656 231.960938 196.148438 231.296875 196.140625 230.625 L 196.140625 205.871094 C 196.140625 205.351562 196.183594 204.835938 196.269531 204.320312 C 196.355469 203.808594 196.480469 203.304688 196.652344 202.816406 C 196.824219 202.324219 197.03125 201.851562 197.28125 201.394531 C 197.53125 200.9375 197.820312 200.507812 198.140625 200.097656 C 198.464844 199.691406 198.820312 199.3125 199.203125 198.964844 C 199.589844 198.617188 200.003906 198.304688 200.441406 198.027344 C 200.882812 197.75 201.339844 197.507812 201.820312 197.308594 C 202.300781 197.105469 202.792969 196.949219 203.300781 196.828125 C 204.285156 196.605469 205.257812 196.335938 206.21875 196.019531 C 207.175781 195.707031 208.121094 195.347656 209.046875 194.941406 C 209.972656 194.539062 210.875 194.09375 211.761719 193.601562 C 212.644531 193.113281 213.503906 192.585938 214.339844 192.015625 C 215.171875 191.445312 215.980469 190.839844 216.757812 190.195312 C 217.535156 189.550781 218.28125 188.867188 218.992188 188.152344 C 219.707031 187.4375 220.386719 186.691406 221.027344 185.914062 C 221.671875 185.132812 222.277344 184.328125 222.847656 183.492188 C 223.414062 182.65625 223.941406 181.796875 224.429688 180.910156 C 224.914062 180.023438 225.359375 179.121094 225.761719 178.191406 C 226.164062 177.265625 226.519531 176.320312 226.835938 175.363281 C 227.148438 174.402344 227.417969 173.429688 227.636719 172.441406 C 227.859375 171.457031 228.035156 170.464844 228.164062 169.460938 C 228.292969 168.460938 228.375 167.453125 228.410156 166.445312 C 228.445312 165.433594 228.429688 164.425781 228.371094 163.417969 C 228.308594 162.410156 228.203125 161.40625 228.046875 160.40625 C 227.894531 159.410156 227.691406 158.417969 227.445312 157.441406 C 227.199219 156.460938 226.90625 155.496094 226.566406 154.542969 C 226.230469 153.589844 225.847656 152.65625 225.421875 151.742188 C 224.996094 150.824219 224.527344 149.929688 224.019531 149.058594 C 223.507812 148.183594 222.960938 147.339844 222.371094 146.519531 C 221.78125 145.699219 221.15625 144.90625 220.492188 144.144531 C 219.828125 143.382812 219.132812 142.652344 218.398438 141.957031 C 217.667969 141.261719 216.90625 140.597656 216.109375 139.972656 C 215.316406 139.347656 214.496094 138.761719 213.648438 138.214844 C 212.796875 137.667969 211.925781 137.160156 211.027344 136.695312 C 210.132812 136.230469 209.214844 135.804688 208.28125 135.425781 C 207.34375 135.046875 206.390625 134.710938 205.425781 134.421875 C 204.457031 134.128906 203.476562 133.886719 202.488281 133.6875 C 201.496094 133.488281 200.5 133.335938 199.496094 133.230469 C 198.488281 133.125 197.480469 133.070312 196.472656 133.058594 C 195.460938 133.046875 194.453125 133.085938 193.445312 133.167969 C 192.441406 133.253906 191.4375 133.386719 190.445312 133.5625 C 189.449219 133.742188 188.464844 133.964844 187.492188 134.234375 C 186.519531 134.507812 185.5625 134.820312 184.617188 135.183594 C 183.675781 135.542969 182.75 135.945312 181.84375 136.394531 C 180.9375 136.839844 180.054688 137.332031 179.195312 137.859375 C 178.335938 138.390625 177.5 138.960938 176.695312 139.570312 C 175.886719 140.175781 175.113281 140.820312 174.367188 141.503906 C 173.621094 142.183594 172.90625 142.898438 172.230469 143.648438 C 171.550781 144.394531 170.90625 145.171875 170.300781 145.980469 C 169.695312 146.789062 169.128906 147.625 168.601562 148.488281 C 168.074219 149.347656 167.589844 150.234375 167.144531 151.140625 C 166.699219 152.046875 166.296875 152.972656 165.941406 153.917969 C 165.582031 154.863281 165.269531 155.824219 165.003906 156.796875 C 164.734375 157.769531 164.515625 158.753906 164.339844 159.75 C 164.164062 160.746094 164.035156 161.746094 163.957031 162.753906 C 163.875 163.761719 163.839844 164.769531 163.855469 165.777344 L 163.855469 268.023438 C 163.855469 268.554688 163.828125 269.082031 163.777344 269.609375 C 163.722656 270.132812 163.648438 270.65625 163.542969 271.175781 C 163.441406 271.695312 163.3125 272.207031 163.160156 272.710938 C 163.003906 273.21875 162.828125 273.714844 162.625 274.203125 C 162.421875 274.691406 162.195312 275.167969 161.949219 275.636719 C 161.699219 276.101562 161.425781 276.554688 161.132812 276.996094 C 160.839844 277.433594 160.523438 277.859375 160.191406 278.265625 C 159.855469 278.675781 159.5 279.066406 159.125 279.441406 C 158.75 279.816406 158.359375 280.167969 157.953125 280.503906 C 157.542969 280.839844 157.117188 281.15625 156.679688 281.449219 C 156.238281 281.742188 155.785156 282.015625 155.320312 282.261719 C 154.855469 282.511719 154.375 282.738281 153.886719 282.941406 C 153.398438 283.144531 152.902344 283.320312 152.394531 283.472656 C 151.890625 283.628906 151.378906 283.757812 150.859375 283.859375 C 150.339844 283.960938 149.820312 284.039062 149.292969 284.089844 C 148.765625 284.144531 148.238281 284.167969 147.710938 284.167969 L 136.945312 284.167969 C 136.417969 284.167969 135.890625 284.144531 135.363281 284.089844 C 134.839844 284.039062 134.316406 283.960938 133.796875 283.859375 C 133.277344 283.757812 132.765625 283.628906 132.261719 283.472656 C 131.753906 283.320312 131.257812 283.144531 130.769531 282.941406 C 130.28125 282.738281 129.804688 282.511719 129.335938 282.261719 C 128.871094 282.015625 128.417969 281.742188 127.976562 281.449219 C 127.539062 281.15625 127.113281 280.839844 126.707031 280.503906 C 126.296875 280.167969 125.90625 279.816406 125.53125 279.441406 C 125.15625 279.066406 124.804688 278.675781 124.46875 278.265625 C 124.132812 277.859375 123.816406 277.433594 123.523438 276.996094 C 123.230469 276.554688 122.957031 276.101562 122.710938 275.636719 C 122.460938 275.167969 122.234375 274.691406 122.03125 274.203125 C 121.828125 273.714844 121.652344 273.21875 121.5 272.710938 C 121.34375 272.207031 121.214844 271.695312 121.113281 271.175781 C 121.011719 270.65625 120.933594 270.132812 120.878906 269.609375 C 120.828125 269.082031 120.804688 268.554688 120.804688 268.023438 L 120.804688 167.714844 C 120.789062 166.507812 120.804688 165.296875 120.847656 164.085938 C 120.890625 162.878906 120.964844 161.671875 121.066406 160.464844 C 121.167969 159.257812 121.296875 158.054688 121.453125 156.855469 C 121.613281 155.65625 121.796875 154.460938 122.011719 153.269531 C 122.226562 152.078125 122.46875 150.894531 122.742188 149.714844 C 123.011719 148.535156 123.308594 147.363281 123.636719 146.199219 C 123.964844 145.03125 124.316406 143.875 124.699219 142.726562 C 125.078125 141.578125 125.488281 140.441406 125.921875 139.3125 C 126.359375 138.183594 126.820312 137.0625 127.308594 135.957031 C 127.796875 134.847656 128.308594 133.753906 128.851562 132.671875 C 129.390625 131.589844 129.957031 130.519531 130.546875 129.464844 C 131.136719 128.40625 131.753906 127.367188 132.394531 126.339844 C 133.035156 125.3125 133.699219 124.300781 134.386719 123.304688 C 135.074219 122.308594 135.785156 121.332031 136.519531 120.371094 C 137.253906 119.410156 138.011719 118.464844 138.789062 117.539062 C 139.570312 116.613281 140.371094 115.707031 141.191406 114.820312 C 142.015625 113.929688 142.859375 113.0625 143.722656 112.214844 C 144.585938 111.367188 145.46875 110.539062 146.371094 109.734375 C 147.273438 108.929688 148.195312 108.144531 149.132812 107.382812 C 150.074219 106.621094 151.03125 105.878906 152.007812 105.164062 C 152.980469 104.445312 153.972656 103.753906 154.980469 103.082031 C 155.988281 102.414062 157.011719 101.765625 158.050781 101.144531 C 159.085938 100.523438 160.140625 99.925781 161.207031 99.355469 C 162.273438 98.785156 163.351562 98.238281 164.445312 97.71875 C 165.539062 97.199219 166.640625 96.703125 167.757812 96.234375 C 168.875 95.769531 170 95.328125 171.136719 94.910156 C 172.273438 94.496094 173.417969 94.109375 174.574219 93.75 C 175.730469 93.390625 176.894531 93.054688 178.0625 92.75 C 179.234375 92.445312 180.414062 92.167969 181.597656 91.917969 C 182.78125 91.671875 183.96875 91.449219 185.164062 91.257812 C 186.359375 91.0625 187.558594 90.898438 188.761719 90.761719 C 189.964844 90.625 191.167969 90.519531 192.375 90.441406 C 194.710938 90.410156 197.042969 90.488281 199.371094 90.675781 C 201.695312 90.863281 204.011719 91.15625 206.3125 91.558594 C 208.609375 91.960938 210.886719 92.46875 213.140625 93.082031 C 215.394531 93.695312 217.613281 94.414062 219.800781 95.234375 C 221.984375 96.054688 224.128906 96.972656 226.230469 97.992188 C 228.332031 99.011719 230.378906 100.128906 232.378906 101.335938 C 234.375 102.546875 236.3125 103.847656 238.1875 105.238281 C 240.0625 106.628906 241.871094 108.101562 243.609375 109.660156 C 245.351562 111.21875 247.011719 112.851562 248.601562 114.566406 C 250.1875 116.277344 251.691406 118.0625 253.113281 119.914062 C 254.535156 121.765625 255.867188 123.679688 257.109375 125.65625 C 258.351562 127.632812 259.503906 129.664062 260.558594 131.746094 C 261.613281 133.832031 262.566406 135.957031 263.425781 138.132812 C 264.28125 140.304688 265.035156 142.511719 265.6875 144.753906 C 266.335938 146.996094 266.882812 149.261719 267.324219 151.554688 C 267.765625 153.847656 268.097656 156.15625 268.324219 158.480469 C 268.550781 160.804688 268.667969 163.136719 268.675781 165.472656 C 268.6875 167.804688 268.585938 170.136719 268.378906 172.460938 C 268.171875 174.789062 267.859375 177.097656 267.4375 179.394531 C 267.015625 181.691406 266.484375 183.964844 265.851562 186.210938 C 265.21875 188.460938 264.484375 190.671875 263.644531 192.851562 C 262.804688 195.03125 261.867188 197.167969 260.828125 199.257812 C 259.789062 201.351562 258.65625 203.390625 257.429688 205.375 C 256.203125 207.363281 254.886719 209.289062 253.476562 211.152344 C 252.070312 213.015625 250.582031 214.808594 249.007812 216.535156 C 247.433594 218.261719 245.785156 219.910156 244.058594 221.480469 C 242.332031 223.054688 240.535156 224.542969 238.671875 225.949219 C 236.804688 227.351562 234.878906 228.667969 232.890625 229.894531 C 230.90625 231.121094 228.863281 232.25 226.773438 233.289062 C 224.679688 234.324219 222.542969 235.261719 220.363281 236.097656 C 218.183594 236.9375 215.96875 237.671875 213.722656 238.300781 C 211.476562 238.933594 209.203125 239.460938 206.90625 239.878906 Z M 206.90625 239.878906 "/></g></g></svg>