<svg xmlns="http://www.w3.org/2000/svg" xmlns:xlink="http://www.w3.org/1999/xlink" width="500" zoomAndPan="magnify" viewBox="0 0 375 374.999991" height="500" preserveAspectRatio="xMidYMid meet" version="1.2"><defs><clipPath id="ca2833fa2b"><path d="M 68.039062 10.636719 L 306.960938 10.636719 L 306.960938 249.554688 L 68.039062 249.554688 Z M 68.039062 10.636719 "/></clipPath><clipPath id="3c65e4f322"><path d="M 187.5 10.636719 C 121.523438 10.636719 68.039062 64.121094 68.039062 130.097656 C 68.039062 196.074219 121.523438 249.554688 187.5 249.554688 C 253.476562 249.554688 306.960938 196.074219 306.960938 130.097656 C 306.960938 64.121094 253.476562 10.636719 187.5 10.636719 Z M 187.5 10.636719 "/></clipPath><clipPath id="4e533ad02d"><path d="M 90.148438 33.972656 L 282.148438 33.972656 L 282.148438 225.972656 L 90.148438 225.972656 Z M 90.148438 33.972656 "/></clipPath></defs><g id="e4ae53d80d"><g clip-rule="nonzero" clip-path="url(#ca2833fa2b)"><g clip-rule="nonzero" clip-path="url(#3c65e4f322)"><path style=" stroke:none;fill-rule:nonzero;fill:#ffffff;fill-opacity:1;" d="M 68.039062 10.636719 L 306.960938 10.636719 L 306.960938 249.554688 L 68.039062 249.554688 Z M 68.039062 10.636719 "/></g></g><g clip-rule="nonzero" clip-path="url(#4e533ad02d)"><path style=" stroke:none;fill-rule:nonzero;fill:#111827;fill-opacity:1;" d="M 186.148438 33.972656 C 184.578125 33.972656 183.007812 34.011719 181.4375 34.089844 C 179.871094 34.164062 178.304688 34.28125 176.738281 34.433594 C 175.175781 34.589844 173.617188 34.78125 172.0625 35.011719 C 170.507812 35.242188 168.960938 35.511719 167.421875 35.816406 C 165.878906 36.125 164.347656 36.46875 162.824219 36.847656 C 161.300781 37.230469 159.785156 37.648438 158.28125 38.105469 C 156.777344 38.5625 155.285156 39.054688 153.808594 39.585938 C 152.328125 40.113281 150.863281 40.679688 149.410156 41.28125 C 147.960938 41.882812 146.523438 42.519531 145.105469 43.191406 C 143.683594 43.859375 142.28125 44.566406 140.894531 45.308594 C 139.507812 46.046875 138.144531 46.824219 136.796875 47.628906 C 135.449219 48.4375 134.121094 49.277344 132.8125 50.152344 C 131.507812 51.023438 130.222656 51.929688 128.960938 52.863281 C 127.699219 53.800781 126.460938 54.765625 125.246094 55.761719 C 124.03125 56.761719 122.84375 57.785156 121.679688 58.839844 C 120.515625 59.894531 119.378906 60.980469 118.265625 62.089844 C 117.15625 63.203125 116.074219 64.339844 115.019531 65.503906 C 113.960938 66.667969 112.9375 67.855469 111.941406 69.070312 C 110.945312 70.285156 109.976562 71.523438 109.042969 72.785156 C 108.105469 74.046875 107.199219 75.332031 106.328125 76.636719 C 105.457031 77.945312 104.613281 79.269531 103.808594 80.617188 C 103 81.964844 102.226562 83.332031 101.484375 84.71875 C 100.742188 86.105469 100.039062 87.507812 99.367188 88.925781 C 98.695312 90.347656 98.058594 91.785156 97.457031 93.234375 C 96.855469 94.6875 96.289062 96.152344 95.761719 97.632812 C 95.230469 99.109375 94.738281 100.601562 94.28125 102.105469 C 93.828125 103.609375 93.40625 105.121094 93.027344 106.644531 C 92.644531 108.171875 92.300781 109.703125 91.992188 111.242188 C 91.6875 112.785156 91.417969 114.332031 91.1875 115.886719 C 90.957031 117.441406 90.765625 119 90.613281 120.5625 C 90.457031 122.125 90.34375 123.691406 90.265625 125.261719 C 90.1875 126.832031 90.148438 128.402344 90.148438 129.972656 C 90.148438 131.542969 90.1875 133.113281 90.265625 134.683594 C 90.34375 136.253906 90.457031 137.820312 90.613281 139.382812 C 90.765625 140.945312 90.957031 142.503906 91.1875 144.058594 C 91.417969 145.613281 91.6875 147.160156 91.992188 148.703125 C 92.300781 150.242188 92.644531 151.773438 93.027344 153.296875 C 93.40625 154.824219 93.828125 156.335938 94.28125 157.839844 C 94.738281 159.34375 95.230469 160.835938 95.761719 162.3125 C 96.289062 163.792969 96.855469 165.257812 97.457031 166.710938 C 98.058594 168.160156 98.695312 169.597656 99.367188 171.019531 C 100.039062 172.4375 100.742188 173.839844 101.484375 175.226562 C 102.226562 176.613281 103 177.980469 103.808594 179.328125 C 104.613281 180.675781 105.457031 182 106.328125 183.308594 C 107.199219 184.613281 108.105469 185.898438 109.042969 187.160156 C 109.976562 188.421875 110.945312 189.660156 111.941406 190.875 C 112.9375 192.089844 113.960938 193.277344 115.019531 194.441406 C 116.074219 195.605469 117.15625 196.742188 118.265625 197.855469 C 119.378906 198.964844 120.515625 200.046875 121.679688 201.105469 C 122.84375 202.160156 124.03125 203.183594 125.246094 204.179688 C 126.460938 205.179688 127.699219 206.144531 128.960938 207.082031 C 130.222656 208.015625 131.507812 208.921875 132.8125 209.792969 C 134.121094 210.667969 135.449219 211.507812 136.796875 212.316406 C 138.144531 213.121094 139.507812 213.894531 140.894531 214.636719 C 142.28125 215.378906 143.683594 216.082031 145.105469 216.753906 C 146.523438 217.425781 147.960938 218.0625 149.410156 218.664062 C 150.863281 219.265625 152.328125 219.832031 153.808594 220.359375 C 155.285156 220.890625 156.777344 221.382812 158.28125 221.839844 C 159.785156 222.292969 161.300781 222.714844 162.824219 223.09375 C 164.347656 223.476562 165.878906 223.820312 167.421875 224.128906 C 168.960938 224.433594 170.507812 224.703125 172.0625 224.933594 C 173.617188 225.164062 175.175781 225.355469 176.738281 225.511719 C 178.304688 225.664062 179.871094 225.78125 181.4375 225.855469 C 183.007812 225.933594 184.578125 225.972656 186.148438 225.972656 C 187.71875 225.972656 189.289062 225.933594 190.859375 225.855469 C 192.429688 225.78125 193.996094 225.664062 195.558594 225.511719 C 197.121094 225.355469 198.679688 225.164062 200.234375 224.933594 C 201.789062 224.703125 203.335938 224.433594 204.878906 224.128906 C 206.417969 223.820312 207.953125 223.476562 209.476562 223.09375 C 211 222.714844 212.511719 222.292969 214.015625 221.839844 C 215.519531 221.382812 217.011719 220.890625 218.492188 220.359375 C 219.96875 219.832031 221.433594 219.265625 222.886719 218.664062 C 224.339844 218.0625 225.773438 217.425781 227.195312 216.753906 C 228.613281 216.082031 230.015625 215.378906 231.402344 214.636719 C 232.789062 213.894531 234.15625 213.121094 235.503906 212.316406 C 236.851562 211.507812 238.175781 210.667969 239.484375 209.792969 C 240.789062 208.921875 242.074219 208.015625 243.335938 207.082031 C 244.597656 206.144531 245.835938 205.179688 247.050781 204.179688 C 248.265625 203.183594 249.453125 202.160156 250.617188 201.105469 C 251.78125 200.046875 252.921875 198.964844 254.03125 197.855469 C 255.140625 196.742188 256.226562 195.605469 257.28125 194.441406 C 258.335938 193.277344 259.363281 192.089844 260.359375 190.875 C 261.355469 189.660156 262.320312 188.421875 263.257812 187.160156 C 264.191406 185.898438 265.097656 184.613281 265.96875 183.308594 C 266.84375 182 267.683594 180.675781 268.492188 179.328125 C 269.296875 177.980469 270.074219 176.613281 270.8125 175.226562 C 271.554688 173.839844 272.261719 172.4375 272.933594 171.019531 C 273.605469 169.597656 274.242188 168.160156 274.839844 166.710938 C 275.441406 165.257812 276.007812 163.792969 276.539062 162.3125 C 277.066406 160.835938 277.558594 159.34375 278.015625 157.839844 C 278.472656 156.335938 278.890625 154.824219 279.273438 153.296875 C 279.652344 151.773438 279.996094 150.242188 280.304688 148.703125 C 280.609375 147.160156 280.878906 145.613281 281.109375 144.058594 C 281.339844 142.503906 281.53125 140.945312 281.6875 139.382812 C 281.839844 137.820312 281.957031 136.253906 282.035156 134.683594 C 282.109375 133.113281 282.148438 131.542969 282.148438 129.972656 C 282.148438 128.402344 282.109375 126.832031 282.035156 125.261719 C 281.957031 123.691406 281.839844 122.125 281.6875 120.5625 C 281.53125 119 281.339844 117.441406 281.109375 115.886719 C 280.878906 114.332031 280.609375 112.785156 280.304688 111.242188 C 279.996094 109.703125 279.652344 108.171875 279.273438 106.644531 C 278.890625 105.121094 278.472656 103.609375 278.015625 102.105469 C 277.558594 100.601562 277.066406 99.109375 276.539062 97.632812 C 276.007812 96.152344 275.441406 94.6875 274.839844 93.234375 C 274.242188 91.785156 273.605469 90.347656 272.933594 88.925781 C 272.261719 87.507812 271.554688 86.105469 270.8125 84.71875 C 270.074219 83.332031 269.296875 81.964844 268.492188 80.617188 C 267.683594 79.269531 266.84375 77.945312 265.96875 76.636719 C 265.097656 75.332031 264.191406 74.046875 263.257812 72.785156 C 262.320312 71.523438 261.355469 70.285156 260.359375 69.070312 C 259.363281 67.855469 258.335938 66.667969 257.28125 65.503906 C 256.226562 64.339844 255.140625 63.203125 254.03125 62.089844 C 252.921875 60.980469 251.78125 59.894531 250.617188 58.839844 C 249.453125 57.785156 248.265625 56.761719 247.050781 55.761719 C 245.835938 54.765625 244.597656 53.800781 243.335938 52.863281 C 242.074219 51.929688 240.789062 51.023438 239.484375 50.152344 C 238.175781 49.277344 236.851562 48.4375 235.503906 47.628906 C 234.15625 46.824219 232.789062 46.046875 231.402344 45.308594 C 230.019531 44.566406 228.613281 43.859375 227.195312 43.191406 C 225.773438 42.519531 224.339844 41.882812 222.886719 41.28125 C 221.433594 40.679688 219.96875 40.113281 218.492188 39.585938 C 217.011719 39.054688 215.519531 38.5625 214.015625 38.105469 C 212.511719 37.648438 211 37.230469 209.476562 36.847656 C 207.949219 36.46875 206.417969 36.125 204.878906 35.816406 C 203.335938 35.511719 201.789062 35.242188 200.234375 35.011719 C 198.679688 34.78125 197.121094 34.589844 195.558594 34.433594 C 193.996094 34.28125 192.429688 34.164062 190.859375 34.089844 C 189.289062 34.011719 187.71875 33.972656 186.148438 33.972656 Z M 199.863281 163.46875 C 199.4375 163.53125 199.011719 163.546875 198.585938 163.515625 C 198.160156 163.488281 197.738281 163.410156 197.328125 163.292969 C 196.917969 163.171875 196.523438 163.011719 196.144531 162.804688 C 195.769531 162.601562 195.417969 162.359375 195.09375 162.082031 C 194.769531 161.800781 194.476562 161.492188 194.21875 161.148438 C 193.960938 160.808594 193.742188 160.441406 193.5625 160.050781 C 193.382812 159.664062 193.246094 159.261719 193.152344 158.84375 C 193.058594 158.425781 193.007812 158 193.007812 157.574219 L 193.007812 141.800781 C 193.003906 141.132812 193.113281 140.484375 193.332031 139.855469 C 193.550781 139.222656 193.867188 138.648438 194.28125 138.125 C 194.695312 137.601562 195.183594 137.160156 195.746094 136.804688 C 196.308594 136.445312 196.917969 136.191406 197.566406 136.042969 C 198.195312 135.898438 198.8125 135.726562 199.425781 135.527344 C 200.035156 135.324219 200.636719 135.097656 201.226562 134.839844 C 201.816406 134.582031 202.394531 134.296875 202.957031 133.984375 C 203.519531 133.675781 204.066406 133.335938 204.597656 132.972656 C 205.132812 132.613281 205.644531 132.222656 206.140625 131.8125 C 206.636719 131.402344 207.109375 130.96875 207.566406 130.511719 C 208.019531 130.058594 208.453125 129.582031 208.863281 129.085938 C 209.273438 128.589844 209.65625 128.074219 210.019531 127.542969 C 210.382812 127.011719 210.71875 126.460938 211.027344 125.898438 C 211.339844 125.335938 211.621094 124.757812 211.878906 124.167969 C 212.132812 123.578125 212.359375 122.976562 212.5625 122.363281 C 212.761719 121.75 212.929688 121.132812 213.074219 120.503906 C 213.214844 119.875 213.324219 119.242188 213.40625 118.605469 C 213.488281 117.964844 213.542969 117.324219 213.5625 116.683594 C 213.585938 116.039062 213.578125 115.394531 213.539062 114.753906 C 213.5 114.109375 213.433594 113.472656 213.332031 112.835938 C 213.234375 112.199219 213.105469 111.570312 212.949219 110.945312 C 212.792969 110.320312 212.605469 109.707031 212.390625 109.097656 C 212.175781 108.492188 211.933594 107.898438 211.660156 107.3125 C 211.390625 106.730469 211.089844 106.160156 210.765625 105.605469 C 210.441406 105.050781 210.09375 104.507812 209.714844 103.988281 C 209.339844 103.464844 208.941406 102.960938 208.519531 102.472656 C 208.097656 101.988281 207.652344 101.523438 207.1875 101.082031 C 206.71875 100.636719 206.234375 100.214844 205.726562 99.816406 C 205.222656 99.417969 204.699219 99.046875 204.160156 98.695312 C 203.617188 98.347656 203.0625 98.023438 202.492188 97.726562 C 201.917969 97.429688 201.335938 97.160156 200.738281 96.921875 C 200.144531 96.679688 199.535156 96.464844 198.921875 96.28125 C 198.304688 96.09375 197.679688 95.9375 197.046875 95.8125 C 196.417969 95.683594 195.78125 95.589844 195.140625 95.523438 C 194.5 95.453125 193.859375 95.417969 193.214844 95.410156 C 192.574219 95.40625 191.929688 95.429688 191.289062 95.480469 C 190.648438 95.535156 190.011719 95.621094 189.375 95.734375 C 188.742188 95.847656 188.117188 95.988281 187.496094 96.160156 C 186.875 96.335938 186.265625 96.535156 185.664062 96.765625 C 185.0625 96.996094 184.472656 97.25 183.894531 97.535156 C 183.320312 97.820312 182.757812 98.132812 182.207031 98.472656 C 181.660156 98.808594 181.128906 99.171875 180.617188 99.558594 C 180.101562 99.945312 179.609375 100.359375 179.132812 100.792969 C 178.65625 101.226562 178.203125 101.679688 177.769531 102.15625 C 177.339844 102.632812 176.929688 103.128906 176.542969 103.644531 C 176.15625 104.160156 175.796875 104.691406 175.460938 105.242188 C 175.125 105.789062 174.8125 106.351562 174.53125 106.929688 C 174.246094 107.507812 173.992188 108.097656 173.765625 108.703125 C 173.535156 109.304688 173.335938 109.914062 173.167969 110.535156 C 172.996094 111.15625 172.855469 111.785156 172.746094 112.417969 C 172.632812 113.050781 172.550781 113.6875 172.5 114.332031 C 172.449219 114.972656 172.425781 115.613281 172.433594 116.257812 L 172.433594 181.402344 C 172.433594 182.078125 172.367188 182.746094 172.238281 183.40625 C 172.105469 184.070312 171.910156 184.714844 171.652344 185.335938 C 171.394531 185.960938 171.078125 186.554688 170.703125 187.117188 C 170.324219 187.675781 169.898438 188.195312 169.421875 188.675781 C 168.945312 189.152344 168.425781 189.578125 167.863281 189.953125 C 167.300781 190.328125 166.710938 190.644531 166.085938 190.902344 C 165.460938 191.164062 164.816406 191.359375 164.15625 191.488281 C 163.492188 191.621094 162.824219 191.6875 162.148438 191.6875 L 155.292969 191.6875 C 154.617188 191.6875 153.949219 191.621094 153.285156 191.488281 C 152.621094 191.359375 151.980469 191.164062 151.355469 190.902344 C 150.730469 190.644531 150.140625 190.328125 149.578125 189.953125 C 149.015625 189.578125 148.496094 189.152344 148.019531 188.675781 C 147.542969 188.195312 147.113281 187.675781 146.738281 187.117188 C 146.363281 186.554688 146.046875 185.960938 145.789062 185.335938 C 145.53125 184.714844 145.335938 184.070312 145.203125 183.40625 C 145.070312 182.746094 145.007812 182.078125 145.007812 181.402344 L 145.007812 117.492188 C 144.988281 115.949219 145.042969 114.410156 145.171875 112.871094 C 145.300781 111.335938 145.503906 109.808594 145.777344 108.289062 C 146.050781 106.769531 146.394531 105.269531 146.8125 103.78125 C 147.226562 102.296875 147.714844 100.835938 148.269531 99.394531 C 148.824219 97.957031 149.445312 96.546875 150.132812 95.164062 C 150.820312 93.785156 151.574219 92.4375 152.390625 91.128906 C 153.207031 89.820312 154.082031 88.554688 155.019531 87.328125 C 155.957031 86.101562 156.949219 84.921875 157.996094 83.789062 C 159.046875 82.660156 160.144531 81.578125 161.296875 80.550781 C 162.445312 79.523438 163.644531 78.554688 164.886719 77.640625 C 166.128906 76.726562 167.414062 75.871094 168.738281 75.078125 C 170.058594 74.285156 171.417969 73.558594 172.8125 72.894531 C 174.203125 72.230469 175.625 71.636719 177.074219 71.109375 C 178.523438 70.578125 179.996094 70.121094 181.488281 69.730469 C 182.980469 69.34375 184.488281 69.023438 186.011719 68.777344 C 187.535156 68.53125 189.066406 68.359375 190.605469 68.257812 C 192.09375 68.238281 193.578125 68.289062 195.0625 68.410156 C 196.546875 68.527344 198.019531 68.714844 199.484375 68.972656 C 200.949219 69.226562 202.402344 69.550781 203.835938 69.941406 C 205.273438 70.332031 206.6875 70.789062 208.078125 71.3125 C 209.472656 71.835938 210.835938 72.421875 212.175781 73.070312 C 213.515625 73.71875 214.820312 74.429688 216.09375 75.199219 C 217.363281 75.972656 218.597656 76.800781 219.792969 77.6875 C 220.988281 78.570312 222.140625 79.511719 223.25 80.503906 C 224.355469 81.496094 225.417969 82.539062 226.429688 83.628906 C 227.4375 84.71875 228.398438 85.855469 229.304688 87.035156 C 230.207031 88.21875 231.058594 89.4375 231.851562 90.695312 C 232.640625 91.957031 233.375 93.25 234.046875 94.578125 C 234.71875 95.902344 235.328125 97.257812 235.871094 98.644531 C 236.417969 100.027344 236.898438 101.433594 237.3125 102.863281 C 237.730469 104.289062 238.078125 105.734375 238.359375 107.195312 C 238.636719 108.65625 238.851562 110.128906 238.996094 111.609375 C 239.136719 113.089844 239.214844 114.574219 239.21875 116.0625 C 239.226562 117.550781 239.164062 119.035156 239.03125 120.515625 C 238.898438 122 238.699219 123.472656 238.429688 124.933594 C 238.160156 126.398438 237.824219 127.84375 237.417969 129.277344 C 237.015625 130.707031 236.546875 132.117188 236.011719 133.507812 C 235.476562 134.894531 234.878906 136.253906 234.21875 137.589844 C 233.558594 138.921875 232.835938 140.21875 232.054688 141.484375 C 231.269531 142.75 230.433594 143.976562 229.535156 145.164062 C 228.640625 146.351562 227.691406 147.496094 226.6875 148.597656 C 225.6875 149.695312 224.632812 150.746094 223.535156 151.746094 C 222.433594 152.75 221.289062 153.699219 220.101562 154.59375 C 218.914062 155.488281 217.6875 156.324219 216.421875 157.105469 C 215.152344 157.886719 213.855469 158.609375 212.519531 159.269531 C 211.1875 159.929688 209.828125 160.527344 208.4375 161.058594 C 207.050781 161.59375 205.640625 162.0625 204.207031 162.464844 C 202.773438 162.867188 201.328125 163.203125 199.863281 163.46875 Z M 199.863281 163.46875 "/></g><g style="fill:#ffffff;fill-opacity:1;"><g transform="translate(16.021813, 340.039907)"><path style="stroke:none" d="M 35.15625 -70.53125 C 39.925781 -70.53125 44.175781 -69.46875 47.90625 -67.34375 C 51.632812 -65.226562 54.601562 -62.34375 56.8125 -58.6875 C 59.03125 -55.03125 60.140625 -50.882812 60.140625 -46.25 C 60.140625 -41.613281 59.046875 -37.460938 56.859375 -33.796875 C 54.679688 -30.140625 51.710938 -27.269531 47.953125 -25.1875 C 44.191406 -23.101562 39.925781 -22.0625 35.15625 -22.0625 L 23.375 -22.0625 L 23.375 0 L 8.0625 0 L 8.0625 -70.53125 Z M 34.5625 -36.171875 C 37.582031 -36.171875 40.015625 -37.125 41.859375 -39.03125 C 43.703125 -40.945312 44.625 -43.351562 44.625 -46.25 C 44.625 -49.195312 43.703125 -51.628906 41.859375 -53.546875 C 40.015625 -55.460938 37.582031 -56.421875 34.5625 -56.421875 L 23.375 -56.421875 L 23.375 -36.171875 Z M 34.5625 -36.171875 "/></g></g><g style="fill:#ffffff;fill-opacity:1;"><g transform="translate(76.368908, 340.039907)"><path style="stroke:none" d="M 32.9375 1.515625 C 27.300781 1.515625 22.265625 0.253906 17.828125 -2.265625 C 13.398438 -4.785156 9.910156 -8.210938 7.359375 -12.546875 C 4.804688 -16.878906 3.53125 -21.765625 3.53125 -27.203125 C 3.53125 -32.710938 4.804688 -37.628906 7.359375 -41.953125 C 9.910156 -46.285156 13.398438 -49.695312 17.828125 -52.1875 C 22.265625 -54.675781 27.300781 -55.921875 32.9375 -55.921875 C 38.519531 -55.921875 43.523438 -54.675781 47.953125 -52.1875 C 52.390625 -49.695312 55.882812 -46.285156 58.4375 -41.953125 C 60.988281 -37.628906 62.265625 -32.710938 62.265625 -27.203125 C 62.265625 -21.765625 60.988281 -16.878906 58.4375 -12.546875 C 55.882812 -8.210938 52.390625 -4.785156 47.953125 -2.265625 C 43.523438 0.253906 38.519531 1.515625 32.9375 1.515625 Z M 32.9375 -12.296875 C 37.175781 -12.296875 40.640625 -13.671875 43.328125 -16.421875 C 46.015625 -19.171875 47.359375 -22.765625 47.359375 -27.203125 C 47.359375 -31.640625 46.015625 -35.234375 43.328125 -37.984375 C 40.640625 -40.734375 37.175781 -42.109375 32.9375 -42.109375 C 28.644531 -42.109375 25.15625 -40.734375 22.46875 -37.984375 C 19.78125 -35.234375 18.4375 -31.640625 18.4375 -27.203125 C 18.4375 -22.765625 19.78125 -19.171875 22.46875 -16.421875 C 25.15625 -13.671875 28.644531 -12.296875 32.9375 -12.296875 Z M 32.9375 -12.296875 "/></g></g><g style="fill:#ffffff;fill-opacity:1;"><g transform="translate(139.839161, 340.039907)"><path style="stroke:none" d="M 32.34375 1.515625 C 26.90625 1.515625 22 0.238281 17.625 -2.3125 C 13.257812 -4.863281 9.816406 -8.320312 7.296875 -12.6875 C 4.785156 -17.0625 3.53125 -21.96875 3.53125 -27.40625 C 3.53125 -32.84375 4.785156 -37.707031 7.296875 -42 C 9.816406 -46.300781 13.257812 -49.695312 17.625 -52.1875 C 22 -54.675781 26.9375 -55.921875 32.4375 -55.921875 C 37.144531 -55.921875 41.425781 -54.992188 45.28125 -53.140625 C 49.144531 -51.296875 52.367188 -48.691406 54.953125 -45.328125 C 57.546875 -41.972656 59.273438 -38.082031 60.140625 -33.65625 L 45.53125 -33.65625 C 44.320312 -36.34375 42.5625 -38.421875 40.25 -39.890625 C 37.9375 -41.367188 35.300781 -42.109375 32.34375 -42.109375 C 29.71875 -42.109375 27.347656 -41.453125 25.234375 -40.140625 C 23.117188 -38.835938 21.457031 -37.078125 20.25 -34.859375 C 19.039062 -32.640625 18.4375 -30.117188 18.4375 -27.296875 C 18.4375 -24.484375 19.039062 -21.953125 20.25 -19.703125 C 21.457031 -17.453125 23.117188 -15.65625 25.234375 -14.3125 C 27.347656 -12.96875 29.71875 -12.296875 32.34375 -12.296875 C 35.363281 -12.296875 38 -13.082031 40.25 -14.65625 C 42.5 -16.238281 44.257812 -18.503906 45.53125 -21.453125 L 60.34375 -21.453125 C 59.476562 -16.890625 57.734375 -12.878906 55.109375 -9.421875 C 52.492188 -5.960938 49.238281 -3.273438 45.34375 -1.359375 C 41.445312 0.554688 37.113281 1.515625 32.34375 1.515625 Z M 32.34375 1.515625 "/></g></g><g style="fill:#ffffff;fill-opacity:1;"><g transform="translate(200.488494, 340.039907)"><path style="stroke:none" d="M 57.03125 0 L 39.1875 0 L 21.765625 -26 L 21.765625 0 L 7.046875 0 L 7.046875 -74.046875 L 21.765625 -74.046875 L 21.765625 -30.21875 L 38.078125 -54.40625 L 55.015625 -54.40625 L 36.671875 -28.515625 Z M 57.03125 0 "/></g></g><g style="fill:#ffffff;fill-opacity:1;"><g transform="translate(254.690046, 340.039907)"><path style="stroke:none" d="M 59.84375 -27.40625 C 59.84375 -25.988281 59.742188 -24.546875 59.546875 -23.078125 L 18.4375 -23.078125 C 19.039062 -19.378906 20.515625 -16.539062 22.859375 -14.5625 C 25.210938 -12.582031 28.171875 -11.59375 31.734375 -11.59375 C 34.285156 -11.59375 36.566406 -12.144531 38.578125 -13.25 C 40.597656 -14.351562 42.144531 -15.878906 43.21875 -17.828125 L 58.734375 -17.828125 C 56.722656 -11.921875 53.296875 -7.21875 48.453125 -3.71875 C 43.617188 -0.226562 38.046875 1.515625 31.734375 1.515625 C 26.359375 1.515625 21.535156 0.253906 17.265625 -2.265625 C 13.003906 -4.785156 9.648438 -8.210938 7.203125 -12.546875 C 4.753906 -16.878906 3.53125 -21.765625 3.53125 -27.203125 C 3.53125 -32.640625 4.753906 -37.523438 7.203125 -41.859375 C 9.648438 -46.191406 13.003906 -49.617188 17.265625 -52.140625 C 21.535156 -54.660156 26.359375 -55.921875 31.734375 -55.921875 C 37.304688 -55.921875 42.207031 -54.625 46.4375 -52.03125 C 50.675781 -49.445312 53.96875 -46.003906 56.3125 -41.703125 C 58.664062 -37.410156 59.84375 -32.644531 59.84375 -27.40625 Z M 31.734375 -43.421875 C 28.441406 -43.421875 25.671875 -42.515625 23.421875 -40.703125 C 21.171875 -38.890625 19.644531 -36.367188 18.84375 -33.140625 L 45.140625 -33.140625 C 42.984375 -39.992188 38.515625 -43.421875 31.734375 -43.421875 Z M 31.734375 -43.421875 "/></g></g><g style="fill:#ffffff;fill-opacity:1;"><g transform="translate(315.641615, 340.039907)"><path style="stroke:none" d="M 33.65625 -13.09375 L 40.296875 -13.09375 L 40.296875 0 L 29.921875 0 C 23.941406 0 19.222656 -1.726562 15.765625 -5.1875 C 12.304688 -8.644531 10.578125 -13.394531 10.578125 -19.4375 L 10.578125 -42.625 L 0.703125 -42.625 L 0.703125 -45.734375 L 22.265625 -68.609375 L 24.984375 -68.609375 L 24.984375 -54.40625 L 40 -54.40625 L 40 -42.625 L 25.28125 -42.625 L 25.28125 -21.359375 C 25.28125 -18.742188 26.003906 -16.710938 27.453125 -15.265625 C 28.898438 -13.816406 30.96875 -13.09375 33.65625 -13.09375 Z M 33.65625 -13.09375 "/></g></g></g></svg>