<svg xmlns="http://www.w3.org/2000/svg" xmlns:xlink="http://www.w3.org/1999/xlink" width="500" zoomAndPan="magnify" viewBox="0 0 375 374.999991" height="500" preserveAspectRatio="xMidYMid meet" version="1.2"><defs><clipPath id="0eec4c14ba"><path d="M 187.5 0 C 83.945312 0 0 83.945312 0 187.5 C 0 291.054688 83.945312 375 187.5 375 C 291.054688 375 375 291.054688 375 187.5 C 375 83.945312 291.054688 0 187.5 0 Z M 187.5 0 "/></clipPath><clipPath id="da7f2b88c3"><path d="M 34.699219 36.625 L 336.199219 36.625 L 336.199219 338.125 L 34.699219 338.125 Z M 34.699219 36.625 "/></clipPath></defs><g id="700bd14857"><g clip-rule="nonzero" clip-path="url(#0eec4c14ba)"><rect x="0" width="375" y="0" height="374.999991" style="fill:#ffffff;fill-opacity:1;stroke:none;"/></g><g clip-rule="nonzero" clip-path="url(#da7f2b88c3)"><path style=" stroke:none;fill-rule:nonzero;fill:#111827;fill-opacity:1;" d="M 185.449219 36.625 C 182.984375 36.625 180.519531 36.6875 178.054688 36.808594 C 175.589844 36.929688 173.128906 37.109375 170.675781 37.351562 C 168.21875 37.59375 165.773438 37.894531 163.332031 38.257812 C 160.890625 38.621094 158.460938 39.042969 156.042969 39.523438 C 153.621094 40.003906 151.214844 40.542969 148.820312 41.144531 C 146.429688 41.742188 144.050781 42.402344 141.691406 43.117188 C 139.328125 43.832031 136.988281 44.605469 134.664062 45.4375 C 132.34375 46.269531 130.039062 47.15625 127.761719 48.101562 C 125.480469 49.046875 123.226562 50.042969 120.996094 51.097656 C 118.765625 52.152344 116.5625 53.261719 114.386719 54.425781 C 112.210938 55.589844 110.066406 56.804688 107.949219 58.074219 C 105.832031 59.339844 103.75 60.660156 101.699219 62.03125 C 99.648438 63.402344 97.632812 64.824219 95.648438 66.292969 C 93.667969 67.761719 91.722656 69.28125 89.816406 70.84375 C 87.910156 72.410156 86.042969 74.019531 84.214844 75.675781 C 82.386719 77.335938 80.597656 79.035156 78.855469 80.78125 C 77.109375 82.523438 75.410156 84.308594 73.753906 86.136719 C 72.097656 87.964844 70.484375 89.832031 68.917969 91.742188 C 67.355469 93.648438 65.835938 95.59375 64.367188 97.574219 C 62.898438 99.554688 61.476562 101.574219 60.105469 103.625 C 58.734375 105.675781 57.417969 107.757812 56.148438 109.875 C 54.878906 111.992188 53.664062 114.136719 52.5 116.3125 C 51.339844 118.488281 50.230469 120.691406 49.175781 122.921875 C 48.121094 125.152344 47.121094 127.40625 46.175781 129.6875 C 45.230469 131.964844 44.34375 134.265625 43.511719 136.589844 C 42.683594 138.914062 41.910156 141.253906 41.191406 143.617188 C 40.476562 145.976562 39.816406 148.351562 39.21875 150.746094 C 38.621094 153.140625 38.078125 155.546875 37.597656 157.964844 C 37.117188 160.386719 36.695312 162.816406 36.332031 165.257812 C 35.96875 167.695312 35.667969 170.144531 35.425781 172.601562 C 35.183594 175.054688 35.003906 177.515625 34.882812 179.980469 C 34.761719 182.441406 34.699219 184.910156 34.699219 187.375 C 34.699219 189.84375 34.761719 192.308594 34.882812 194.773438 C 35.003906 197.238281 35.183594 199.695312 35.425781 202.152344 C 35.667969 204.605469 35.96875 207.054688 36.332031 209.496094 C 36.695312 211.9375 37.117188 214.367188 37.597656 216.785156 C 38.078125 219.207031 38.621094 221.613281 39.21875 224.003906 C 39.816406 226.398438 40.476562 228.773438 41.191406 231.136719 C 41.910156 233.496094 42.683594 235.839844 43.511719 238.160156 C 44.34375 240.484375 45.230469 242.785156 46.175781 245.066406 C 47.121094 247.34375 48.121094 249.597656 49.175781 251.828125 C 50.230469 254.058594 51.339844 256.261719 52.5 258.4375 C 53.664062 260.613281 54.878906 262.761719 56.148438 264.875 C 57.417969 266.992188 58.734375 269.078125 60.105469 271.128906 C 61.476562 273.179688 62.898438 275.195312 64.367188 277.175781 C 65.835938 279.160156 67.355469 281.101562 68.917969 283.011719 C 70.484375 284.917969 72.097656 286.785156 73.753906 288.613281 C 75.410156 290.441406 77.109375 292.226562 78.855469 293.972656 C 80.597656 295.714844 82.386719 297.417969 84.214844 299.074219 C 86.042969 300.730469 87.910156 302.34375 89.816406 303.90625 C 91.722656 305.472656 93.667969 306.988281 95.648438 308.460938 C 97.632812 309.929688 99.648438 311.347656 101.699219 312.71875 C 103.75 314.089844 105.832031 315.410156 107.949219 316.679688 C 110.066406 317.945312 112.210938 319.164062 114.386719 320.324219 C 116.5625 321.488281 118.765625 322.597656 120.996094 323.652344 C 123.226562 324.707031 125.480469 325.707031 127.761719 326.652344 C 130.039062 327.59375 132.34375 328.480469 134.664062 329.3125 C 136.988281 330.144531 139.328125 330.917969 141.691406 331.632812 C 144.050781 332.351562 146.429688 333.007812 148.820312 333.609375 C 151.214844 334.207031 153.621094 334.746094 156.042969 335.230469 C 158.460938 335.710938 160.890625 336.132812 163.332031 336.496094 C 165.773438 336.855469 168.21875 337.15625 170.675781 337.398438 C 173.128906 337.640625 175.589844 337.824219 178.054688 337.945312 C 180.519531 338.066406 182.984375 338.125 185.449219 338.125 C 187.917969 338.125 190.382812 338.066406 192.847656 337.945312 C 195.3125 337.824219 197.773438 337.640625 200.226562 337.398438 C 202.683594 337.15625 205.128906 336.855469 207.570312 336.492188 C 210.011719 336.132812 212.441406 335.710938 214.859375 335.230469 C 217.28125 334.746094 219.6875 334.207031 222.082031 333.609375 C 224.472656 333.007812 226.851562 332.351562 229.210938 331.632812 C 231.570312 330.917969 233.914062 330.144531 236.238281 329.3125 C 238.558594 328.480469 240.859375 327.59375 243.140625 326.652344 C 245.417969 325.707031 247.675781 324.707031 249.90625 323.652344 C 252.136719 322.597656 254.339844 321.488281 256.515625 320.324219 C 258.691406 319.164062 260.835938 317.945312 262.953125 316.679688 C 265.066406 315.410156 267.152344 314.089844 269.203125 312.71875 C 271.253906 311.347656 273.269531 309.929688 275.253906 308.460938 C 277.234375 306.988281 279.179688 305.472656 281.085938 303.90625 C 282.992188 302.34375 284.859375 300.730469 286.6875 299.074219 C 288.515625 297.417969 290.300781 295.714844 292.046875 293.972656 C 293.792969 292.226562 295.492188 290.441406 297.148438 288.613281 C 298.804688 286.785156 300.417969 284.917969 301.980469 283.011719 C 303.546875 281.101562 305.066406 279.160156 306.535156 277.175781 C 308.003906 275.195312 309.425781 273.179688 310.792969 271.128906 C 312.164062 269.078125 313.484375 266.992188 314.753906 264.875 C 316.023438 262.761719 317.238281 260.613281 318.402344 258.4375 C 319.5625 256.261719 320.671875 254.058594 321.726562 251.828125 C 322.78125 249.597656 323.78125 247.34375 324.726562 245.066406 C 325.667969 242.785156 326.558594 240.484375 327.386719 238.160156 C 328.21875 235.839844 328.992188 233.496094 329.710938 231.136719 C 330.425781 228.773438 331.082031 226.398438 331.683594 224.003906 C 332.28125 221.613281 332.824219 219.207031 333.304688 216.785156 C 333.785156 214.367188 334.207031 211.9375 334.570312 209.496094 C 334.929688 207.054688 335.234375 204.605469 335.476562 202.152344 C 335.71875 199.695312 335.898438 197.238281 336.019531 194.773438 C 336.140625 192.308594 336.199219 189.84375 336.199219 187.375 C 336.199219 184.910156 336.140625 182.441406 336.019531 179.980469 C 335.898438 177.515625 335.71875 175.054688 335.476562 172.601562 C 335.234375 170.144531 334.929688 167.695312 334.570312 165.257812 C 334.207031 162.816406 333.785156 160.386719 333.304688 157.964844 C 332.824219 155.546875 332.28125 153.140625 331.683594 150.746094 C 331.082031 148.351562 330.425781 145.976562 329.710938 143.617188 C 328.992188 141.253906 328.21875 138.914062 327.386719 136.589844 C 326.558594 134.265625 325.667969 131.964844 324.726562 129.6875 C 323.78125 127.40625 322.78125 125.152344 321.726562 122.921875 C 320.671875 120.691406 319.5625 118.488281 318.402344 116.3125 C 317.238281 114.136719 316.023438 111.992188 314.753906 109.875 C 313.484375 107.757812 312.164062 105.675781 310.792969 103.625 C 309.425781 101.574219 308.003906 99.554688 306.535156 97.574219 C 305.066406 95.59375 303.546875 93.648438 301.980469 91.742188 C 300.417969 89.832031 298.804688 87.964844 297.148438 86.136719 C 295.492188 84.308594 293.792969 82.523438 292.046875 80.78125 C 290.300781 79.035156 288.515625 77.335938 286.6875 75.675781 C 284.859375 74.019531 282.992188 72.410156 281.085938 70.84375 C 279.179688 69.28125 277.234375 67.761719 275.253906 66.292969 C 273.269531 64.824219 271.253906 63.402344 269.203125 62.03125 C 267.152344 60.660156 265.066406 59.339844 262.953125 58.074219 C 260.835938 56.804688 258.691406 55.589844 256.515625 54.425781 C 254.339844 53.261719 252.136719 52.152344 249.90625 51.097656 C 247.675781 50.042969 245.417969 49.046875 243.140625 48.101562 C 240.859375 47.15625 238.558594 46.269531 236.238281 45.4375 C 233.914062 44.605469 231.570312 43.832031 229.210938 43.117188 C 226.851562 42.402344 224.472656 41.742188 222.082031 41.144531 C 219.6875 40.542969 217.28125 40.003906 214.859375 39.523438 C 212.441406 39.042969 210.011719 38.621094 207.570312 38.257812 C 205.128906 37.894531 202.683594 37.59375 200.226562 37.351562 C 197.773438 37.109375 195.3125 36.929688 192.847656 36.808594 C 190.382812 36.6875 187.917969 36.625 185.449219 36.625 Z M 206.988281 239.976562 C 206.320312 240.074219 205.652344 240.097656 204.980469 240.050781 C 204.308594 240.003906 203.652344 239.886719 203.003906 239.699219 C 202.359375 239.507812 201.742188 239.253906 201.148438 238.933594 C 200.558594 238.613281 200.007812 238.234375 199.496094 237.796875 C 198.988281 237.355469 198.527344 236.867188 198.125 236.332031 C 197.71875 235.796875 197.375 235.222656 197.089844 234.609375 C 196.808594 234 196.59375 233.367188 196.445312 232.710938 C 196.300781 232.054688 196.222656 231.390625 196.21875 230.714844 L 196.21875 205.949219 C 196.21875 205.429688 196.257812 204.914062 196.34375 204.402344 C 196.429688 203.886719 196.558594 203.386719 196.730469 202.894531 C 196.898438 202.402344 197.109375 201.929688 197.359375 201.472656 C 197.609375 201.015625 197.894531 200.585938 198.21875 200.175781 C 198.542969 199.769531 198.894531 199.390625 199.28125 199.042969 C 199.667969 198.695312 200.082031 198.382812 200.519531 198.101562 C 200.960938 197.824219 201.421875 197.585938 201.898438 197.382812 C 202.378906 197.183594 202.871094 197.023438 203.378906 196.90625 C 204.363281 196.679688 205.335938 196.410156 206.296875 196.097656 C 207.257812 195.78125 208.203125 195.421875 209.128906 195.015625 C 210.054688 194.613281 210.960938 194.167969 211.84375 193.675781 C 212.730469 193.1875 213.589844 192.660156 214.421875 192.089844 C 215.257812 191.519531 216.066406 190.910156 216.84375 190.265625 C 217.621094 189.621094 218.367188 188.941406 219.082031 188.226562 C 219.792969 187.511719 220.472656 186.761719 221.117188 185.984375 C 221.761719 185.203125 222.367188 184.398438 222.933594 183.5625 C 223.503906 182.726562 224.03125 181.863281 224.519531 180.980469 C 225.003906 180.09375 225.449219 179.1875 225.851562 178.257812 C 226.253906 177.332031 226.613281 176.386719 226.925781 175.425781 C 227.238281 174.464844 227.507812 173.492188 227.730469 172.507812 C 227.953125 171.519531 228.128906 170.527344 228.253906 169.523438 C 228.382812 168.523438 228.464844 167.515625 228.5 166.503906 C 228.535156 165.496094 228.523438 164.484375 228.460938 163.476562 C 228.402344 162.46875 228.292969 161.464844 228.140625 160.464844 C 227.984375 159.464844 227.785156 158.476562 227.535156 157.496094 C 227.289062 156.515625 226.996094 155.550781 226.65625 154.597656 C 226.320312 153.644531 225.9375 152.710938 225.511719 151.792969 C 225.085938 150.878906 224.617188 149.984375 224.109375 149.109375 C 223.597656 148.238281 223.046875 147.390625 222.460938 146.570312 C 221.871094 145.75 221.242188 144.957031 220.578125 144.195312 C 219.917969 143.433594 219.21875 142.703125 218.484375 142.007812 C 217.753906 141.308594 216.992188 140.648438 216.195312 140.023438 C 215.402344 139.398438 214.582031 138.8125 213.730469 138.261719 C 212.882812 137.714844 212.007812 137.207031 211.113281 136.742188 C 210.214844 136.277344 209.296875 135.851562 208.363281 135.472656 C 207.425781 135.09375 206.472656 134.757812 205.503906 134.46875 C 204.539062 134.175781 203.558594 133.933594 202.566406 133.734375 C 201.574219 133.535156 200.578125 133.382812 199.574219 133.277344 C 198.566406 133.171875 197.558594 133.113281 196.546875 133.105469 C 195.539062 133.09375 194.527344 133.128906 193.523438 133.214844 C 192.515625 133.300781 191.511719 133.429688 190.519531 133.609375 C 189.523438 133.789062 188.539062 134.011719 187.566406 134.28125 C 186.589844 134.554688 185.632812 134.867188 184.6875 135.230469 C 183.746094 135.589844 182.820312 135.992188 181.914062 136.441406 C 181.007812 136.890625 180.125 137.378906 179.261719 137.910156 C 178.402344 138.4375 177.570312 139.007812 176.761719 139.617188 C 175.957031 140.226562 175.179688 140.871094 174.433594 141.550781 C 173.6875 142.234375 172.972656 142.949219 172.292969 143.699219 C 171.613281 144.445312 170.972656 145.222656 170.367188 146.035156 C 169.761719 146.84375 169.191406 147.675781 168.664062 148.539062 C 168.136719 149.402344 167.652344 150.285156 167.207031 151.195312 C 166.761719 152.101562 166.359375 153.027344 166.003906 153.972656 C 165.644531 154.917969 165.332031 155.878906 165.066406 156.851562 C 164.796875 157.828125 164.574219 158.8125 164.402344 159.808594 C 164.226562 160.804688 164.097656 161.804688 164.015625 162.8125 C 163.933594 163.820312 163.902344 164.828125 163.914062 165.839844 L 163.914062 268.132812 C 163.914062 268.664062 163.890625 269.191406 163.835938 269.71875 C 163.785156 270.246094 163.707031 270.765625 163.605469 271.285156 C 163.5 271.804688 163.375 272.316406 163.21875 272.824219 C 163.066406 273.328125 162.886719 273.828125 162.6875 274.316406 C 162.484375 274.804688 162.257812 275.28125 162.007812 275.75 C 161.757812 276.214844 161.488281 276.667969 161.191406 277.109375 C 160.898438 277.546875 160.585938 277.972656 160.25 278.382812 C 159.914062 278.789062 159.558594 279.183594 159.183594 279.554688 C 158.808594 279.929688 158.417969 280.285156 158.011719 280.621094 C 157.601562 280.957031 157.175781 281.269531 156.738281 281.566406 C 156.296875 281.859375 155.84375 282.128906 155.378906 282.378906 C 154.910156 282.628906 154.433594 282.855469 153.945312 283.058594 C 153.457031 283.257812 152.957031 283.4375 152.453125 283.589844 C 151.945312 283.746094 151.433594 283.871094 150.914062 283.976562 C 150.394531 284.078125 149.871094 284.15625 149.347656 284.207031 C 148.820312 284.261719 148.292969 284.285156 147.761719 284.285156 L 136.996094 284.285156 C 136.464844 284.285156 135.9375 284.261719 135.414062 284.207031 C 134.886719 284.15625 134.363281 284.078125 133.84375 283.976562 C 133.324219 283.871094 132.8125 283.746094 132.308594 283.589844 C 131.800781 283.4375 131.304688 283.257812 130.816406 283.058594 C 130.324219 282.855469 129.847656 282.628906 129.382812 282.378906 C 128.914062 282.128906 128.460938 281.859375 128.023438 281.566406 C 127.582031 281.269531 127.15625 280.957031 126.75 280.621094 C 126.339844 280.285156 125.949219 279.929688 125.574219 279.554688 C 125.199219 279.183594 124.84375 278.789062 124.511719 278.382812 C 124.175781 277.972656 123.859375 277.546875 123.566406 277.109375 C 123.273438 276.667969 123 276.214844 122.75 275.75 C 122.5 275.28125 122.277344 274.804688 122.074219 274.316406 C 121.871094 273.828125 121.691406 273.328125 121.539062 272.824219 C 121.386719 272.316406 121.257812 271.804688 121.152344 271.285156 C 121.050781 270.765625 120.972656 270.246094 120.921875 269.71875 C 120.871094 269.191406 120.84375 268.664062 120.84375 268.132812 L 120.84375 167.777344 C 120.832031 166.566406 120.84375 165.359375 120.890625 164.148438 C 120.933594 162.9375 121.003906 161.730469 121.105469 160.523438 C 121.207031 159.316406 121.335938 158.113281 121.496094 156.914062 C 121.652344 155.710938 121.839844 154.515625 122.054688 153.324219 C 122.269531 152.132812 122.511719 150.949219 122.78125 149.769531 C 123.054688 148.589844 123.351562 147.414062 123.679688 146.25 C 124.003906 145.082031 124.359375 143.925781 124.742188 142.777344 C 125.121094 141.628906 125.53125 140.488281 125.964844 139.359375 C 126.402344 138.230469 126.863281 137.109375 127.351562 136.003906 C 127.839844 134.894531 128.355469 133.800781 128.894531 132.71875 C 129.433594 131.632812 130 130.5625 130.59375 129.507812 C 131.183594 128.449219 131.800781 127.410156 132.441406 126.382812 C 133.082031 125.355469 133.746094 124.34375 134.433594 123.347656 C 135.121094 122.351562 135.832031 121.371094 136.566406 120.410156 C 137.304688 119.449219 138.058594 118.503906 138.839844 117.578125 C 139.621094 116.652344 140.421875 115.742188 141.242188 114.855469 C 142.066406 113.96875 142.910156 113.097656 143.773438 112.25 C 144.636719 111.402344 145.519531 110.574219 146.421875 109.769531 C 147.328125 108.960938 148.25 108.179688 149.1875 107.414062 C 150.128906 106.652344 151.085938 105.914062 152.0625 105.195312 C 153.035156 104.476562 154.027344 103.785156 155.035156 103.113281 C 156.046875 102.445312 157.070312 101.796875 158.109375 101.175781 C 159.144531 100.554688 160.199219 99.957031 161.265625 99.386719 C 162.332031 98.8125 163.414062 98.269531 164.507812 97.746094 C 165.601562 97.226562 166.703125 96.730469 167.820312 96.265625 C 168.9375 95.796875 170.0625 95.355469 171.203125 94.9375 C 172.339844 94.523438 173.484375 94.136719 174.640625 93.777344 C 175.796875 93.414062 176.960938 93.082031 178.132812 92.777344 C 179.304688 92.472656 180.480469 92.195312 181.667969 91.945312 C 182.851562 91.695312 184.042969 91.476562 185.234375 91.28125 C 186.429688 91.089844 187.628906 90.925781 188.832031 90.789062 C 190.035156 90.652344 191.242188 90.542969 192.449219 90.464844 C 194.785156 90.433594 197.117188 90.515625 199.445312 90.699219 C 201.777344 90.886719 204.089844 91.183594 206.390625 91.585938 C 208.695312 91.988281 210.972656 92.496094 213.226562 93.109375 C 215.480469 93.722656 217.699219 94.441406 219.886719 95.261719 C 222.074219 96.082031 224.21875 97 226.320312 98.023438 C 228.421875 99.042969 230.472656 100.15625 232.472656 101.367188 C 234.46875 102.578125 236.40625 103.878906 238.285156 105.269531 C 240.160156 106.660156 241.96875 108.136719 243.710938 109.695312 C 245.449219 111.253906 247.113281 112.890625 248.703125 114.601562 C 250.289062 116.316406 251.792969 118.101562 253.214844 119.953125 C 254.636719 121.808594 255.972656 123.722656 257.214844 125.699219 C 258.460938 127.675781 259.609375 129.707031 260.664062 131.792969 C 261.71875 133.878906 262.675781 136.003906 263.53125 138.179688 C 264.390625 140.351562 265.144531 142.5625 265.796875 144.804688 C 266.449219 147.046875 266.992188 149.316406 267.433594 151.609375 C 267.875 153.90625 268.207031 156.214844 268.433594 158.539062 C 268.660156 160.863281 268.777344 163.195312 268.789062 165.53125 C 268.796875 167.867188 268.699219 170.199219 268.492188 172.527344 C 268.285156 174.855469 267.96875 177.167969 267.546875 179.464844 C 267.125 181.761719 266.59375 184.035156 265.960938 186.28125 C 265.328125 188.53125 264.589844 190.746094 263.75 192.925781 C 262.910156 195.105469 261.972656 197.242188 260.933594 199.335938 C 259.894531 201.429688 258.761719 203.46875 257.535156 205.457031 C 256.308594 207.441406 254.988281 209.367188 253.582031 211.234375 C 252.175781 213.097656 250.683594 214.894531 249.109375 216.621094 C 247.535156 218.347656 245.886719 219.996094 244.15625 221.570312 C 242.429688 223.140625 240.632812 224.632812 238.769531 226.035156 C 236.902344 227.441406 234.972656 228.757812 232.984375 229.984375 C 230.996094 231.210938 228.957031 232.34375 226.863281 233.378906 C 224.769531 234.417969 222.632812 235.355469 220.453125 236.191406 C 218.269531 237.03125 216.054688 237.765625 213.808594 238.398438 C 211.558594 239.03125 209.285156 239.554688 206.988281 239.976562 Z M 206.988281 239.976562 "/></g></g></svg>